<svg width="32" height="32" xmlns="http://www.w3.org/2000/svg" xmlns:xlink="http://www.w3.org/1999/xlink">
	<defs>
		<path d="M13.6614 7.0093L13.8655 7.04543L18.2004 8.12942C19.3315 8.41227 19.7211 9.82063 18.8967 10.645L18.2864 11.2544C20.3261 13.9396 20.3266 17.6871 18.2873 20.3726L18.8967 20.982C19.7212 21.8064 19.3315 23.2158 18.2004 23.4986L13.8655 24.5816C12.767 24.8562 11.7719 23.8616 12.0461 22.7632L13.1301 18.4282L13.1955 18.2251C13.586 17.2529 14.8727 16.9582 15.6457 17.731L16.1321 18.2173C17.0452 16.7509 17.0457 14.8749 16.1321 13.4087L15.6457 13.896C14.8213 14.7204 13.413 14.3308 13.1301 13.1997L12.0461 8.86477C11.7887 7.83475 12.6477 6.89604 13.6614 7.0093Z" id="arrow" />
		<filter x="-50%" y="-50%" width="200%" height="200%" filterUnits="objectBoundingBox" id="shadow">
			<feGaussianBlur stdDeviation="1" in="SourceAlpha" result="shadowBlur" />
			<feColorMatrix values="0 0 0 0 0 0 0 0 0 0 0 0 0 0 0 0 0 0 0.4 0" in="shadowBlur" />
		</filter>
	</defs>
	<g fill="none" fill-rule="evenodd">
		<g transform="translate(0, 1)">
			<use fill="#000" filter="url(#shadow)" xlink:href="#arrow" transform="rotate(-301 0 0)" transform-origin="center center" />
		</g>
		<g transform="rotate(-301 0 0)" transform-origin="center center">
			<use fill="#FFF" xlink:href="#arrow" />
			<path d="M14.1003 12.957L13.0166 8.62221C12.9251 8.25602 13.2568 7.92432 13.6229 8.01587L17.9578 9.09958C18.3348 9.19384 18.4649 9.66339 18.19 9.9382L14.9389 13.1893C14.6641 13.4641 14.1946 13.3341 14.1003 12.957Z" fill="#000" />
			<path d="M16.6495 10.9417C19.5422 13.5453 19.5422 18.0823 16.6495 20.6858L15.9795 19.9417C18.431 17.7354 18.431 13.8922 15.9795 11.6858L16.6495 10.9417Z" fill="#000" />
			<path d="M14.1003 18.6705L13.0166 23.0053C12.9251 23.3715 13.2568 23.7032 13.6229 23.6116L17.9578 22.5279C18.3348 22.4337 18.4649 21.9641 18.19 21.6893L14.9389 18.4382C14.6641 18.1634 14.1946 18.2934 14.1003 18.6705Z" fill="#000" />
		</g>
	</g>
</svg>
